<svg xmlns="http://www.w3.org/2000/svg" viewBox="0 0 16 16" width="32" height="32" shape-rendering="crispEdges">
  <g fill="#5C6B52">
    <rect x="5" y="0" width="3" height="1" />
    <rect x="4" y="1" width="6" height="1" /> <rect x="3" y="4" width="1" height="1" />
    <rect x="2" y="5" width="2" height="2" />
    <rect x="3" y="7" width="1" height="1" />
  </g>

  <g fill="#E8E1D3">
    <rect x="5" y="2" width="3" height="2" />
    <rect x="8" y="3" width="1" height="1" />
    <rect x="9" y="6" width="1" height="1" />
  </g>

  <g fill="#9C4336">
    <rect x="4" y="4" width="5" height="4" />
  </g>

  <g fill="#352A22">
    <rect x="4" y="8" width="5" height="1" />
    <rect x="4" y="9" width="2" height="2" />
    <rect x="7" y="9" width="2" height="2" />
    <rect x="4" y="11" width="1" height="1" />
    <rect x="8" y="11" width="1" height="1" />
    <rect x="4" y="12" width="1" height="1" />
    <rect x="8" y="12" width="1" height="1" />
    <rect x="4" y="13" width="2" height="1" />
    <rect x="8" y="13" width="2" height="1" />
  </g>

  <g fill="#D4B895">
    <rect x="10" y="3" width="1" height="12" />
  </g>
</svg>